<mxfile host="app.diagrams.net" agent="Mozilla/5.0 (Windows NT 10.0; Win64; x64) AppleWebKit/537.36 (KHTML, like Gecko) Chrome/138.0.0.0 Safari/537.36 Edg/138.0.0.0" version="28.0.7">
  <diagram name="Page-1" id="4jZYx-C1o4r38tKi5juX">
    <mxGraphModel dx="1034" dy="618" grid="1" gridSize="10" guides="1" tooltips="1" connect="1" arrows="1" fold="1" page="1" pageScale="1" pageWidth="1100" pageHeight="850" math="0" shadow="0">
      <root>
        <mxCell id="0" />
        <mxCell id="1" parent="0" />
        <mxCell id="Fi5sc2P2ReZKkD8UqmJI-1" value="" style="whiteSpace=wrap;html=1;fillStyle=auto;dashed=1;dashPattern=8 8;strokeColor=light-dark(#000000,#1F4EA9);" vertex="1" parent="1">
          <mxGeometry x="170" y="85" width="126" height="607" as="geometry" />
        </mxCell>
        <mxCell id="Fi5sc2P2ReZKkD8UqmJI-3" value="" style="whiteSpace=wrap;html=1;fillStyle=auto;dashed=1;dashPattern=8 8;strokeColor=light-dark(#000000,#1F4EA9);" vertex="1" parent="1">
          <mxGeometry x="314" y="85" width="126" height="607" as="geometry" />
        </mxCell>
        <mxCell id="Fi5sc2P2ReZKkD8UqmJI-4" value="" style="endArrow=classic;html=1;rounded=0;strokeWidth=3;" edge="1" parent="1">
          <mxGeometry width="50" height="50" relative="1" as="geometry">
            <mxPoint x="363" y="428.28999999999996" as="sourcePoint" />
            <mxPoint x="363" y="229" as="targetPoint" />
          </mxGeometry>
        </mxCell>
        <mxCell id="Fi5sc2P2ReZKkD8UqmJI-5" value="" style="whiteSpace=wrap;html=1;fillStyle=auto;dashed=1;dashPattern=8 8;strokeColor=light-dark(#000000,#1F4EA9);" vertex="1" parent="1">
          <mxGeometry x="487" y="84" width="107" height="607" as="geometry" />
        </mxCell>
        <mxCell id="Fi5sc2P2ReZKkD8UqmJI-6" value="" style="rounded=0;whiteSpace=wrap;html=1;dashed=1;dashPattern=8 8;strokeColor=light-dark(#000000,#1F4EA9);" vertex="1" parent="1">
          <mxGeometry x="792" y="84" width="140" height="607" as="geometry" />
        </mxCell>
        <mxCell id="Fi5sc2P2ReZKkD8UqmJI-7" value="Prod release" style="text;html=1;align=center;verticalAlign=middle;resizable=0;points=[];autosize=1;strokeColor=none;fillColor=none;" vertex="1" parent="1">
          <mxGeometry x="817" y="690" width="90" height="30" as="geometry" />
        </mxCell>
        <mxCell id="Fi5sc2P2ReZKkD8UqmJI-8" value="" style="endArrow=none;html=1;rounded=0;fillColor=#60a917;strokeColor=#2D7600;" edge="1" parent="1">
          <mxGeometry width="50" height="50" relative="1" as="geometry">
            <mxPoint x="110" y="428" as="sourcePoint" />
            <mxPoint x="1040" y="428" as="targetPoint" />
          </mxGeometry>
        </mxCell>
        <mxCell id="Fi5sc2P2ReZKkD8UqmJI-9" value="DEV" style="edgeLabel;html=1;align=center;verticalAlign=middle;resizable=0;points=[];" vertex="1" connectable="0" parent="Fi5sc2P2ReZKkD8UqmJI-8">
          <mxGeometry x="0.9487" y="3" relative="1" as="geometry">
            <mxPoint as="offset" />
          </mxGeometry>
        </mxCell>
        <mxCell id="Fi5sc2P2ReZKkD8UqmJI-10" value="" style="endArrow=none;html=1;rounded=0;fillColor=#1ba1e2;strokeColor=#006EAF;" edge="1" parent="1">
          <mxGeometry width="50" height="50" relative="1" as="geometry">
            <mxPoint x="150" y="538" as="sourcePoint" />
            <mxPoint x="1050" y="538" as="targetPoint" />
          </mxGeometry>
        </mxCell>
        <mxCell id="Fi5sc2P2ReZKkD8UqmJI-11" value="UAT" style="edgeLabel;html=1;align=center;verticalAlign=middle;resizable=0;points=[];" vertex="1" connectable="0" parent="Fi5sc2P2ReZKkD8UqmJI-10">
          <mxGeometry x="0.9034" relative="1" as="geometry">
            <mxPoint as="offset" />
          </mxGeometry>
        </mxCell>
        <mxCell id="Fi5sc2P2ReZKkD8UqmJI-12" value="" style="endArrow=none;html=1;rounded=0;fillColor=#e51400;strokeColor=#B20000;" edge="1" parent="1">
          <mxGeometry width="50" height="50" relative="1" as="geometry">
            <mxPoint x="70" y="641" as="sourcePoint" />
            <mxPoint x="1060" y="641" as="targetPoint" />
          </mxGeometry>
        </mxCell>
        <mxCell id="Fi5sc2P2ReZKkD8UqmJI-13" value="Master" style="edgeLabel;html=1;align=center;verticalAlign=middle;resizable=0;points=[];" vertex="1" connectable="0" parent="Fi5sc2P2ReZKkD8UqmJI-12">
          <mxGeometry x="0.8468" y="2" relative="1" as="geometry">
            <mxPoint x="29" as="offset" />
          </mxGeometry>
        </mxCell>
        <mxCell id="Fi5sc2P2ReZKkD8UqmJI-14" style="edgeStyle=orthogonalEdgeStyle;rounded=0;orthogonalLoop=1;jettySize=auto;html=1;" edge="1" parent="1">
          <mxGeometry relative="1" as="geometry">
            <mxPoint x="267" y="428.28999999999996" as="targetPoint" />
            <mxPoint x="267" y="358.28999999999996" as="sourcePoint" />
          </mxGeometry>
        </mxCell>
        <mxCell id="Fi5sc2P2ReZKkD8UqmJI-15" value="Story" style="edgeLabel;html=1;align=center;verticalAlign=middle;resizable=0;points=[];" vertex="1" connectable="0" parent="Fi5sc2P2ReZKkD8UqmJI-14">
          <mxGeometry x="0.8331" y="-2" relative="1" as="geometry">
            <mxPoint y="-34" as="offset" />
          </mxGeometry>
        </mxCell>
        <mxCell id="Fi5sc2P2ReZKkD8UqmJI-16" style="edgeStyle=orthogonalEdgeStyle;rounded=0;orthogonalLoop=1;jettySize=auto;html=1;" edge="1" parent="1">
          <mxGeometry relative="1" as="geometry">
            <mxPoint x="353" y="428.28999999999996" as="targetPoint" />
            <mxPoint x="353" y="358.28999999999996" as="sourcePoint" />
          </mxGeometry>
        </mxCell>
        <mxCell id="Fi5sc2P2ReZKkD8UqmJI-17" value="Bugfix1" style="edgeLabel;html=1;align=center;verticalAlign=middle;resizable=0;points=[];" vertex="1" connectable="0" parent="Fi5sc2P2ReZKkD8UqmJI-16">
          <mxGeometry x="0.7065" relative="1" as="geometry">
            <mxPoint x="5" y="-20" as="offset" />
          </mxGeometry>
        </mxCell>
        <mxCell id="Fi5sc2P2ReZKkD8UqmJI-18" style="edgeStyle=orthogonalEdgeStyle;rounded=0;orthogonalLoop=1;jettySize=auto;html=1;" edge="1" parent="1">
          <mxGeometry relative="1" as="geometry">
            <mxPoint x="538" y="428.28999999999996" as="targetPoint" />
            <mxPoint x="538" y="358.28999999999996" as="sourcePoint" />
          </mxGeometry>
        </mxCell>
        <mxCell id="Fi5sc2P2ReZKkD8UqmJI-19" value="Bugfix3" style="edgeLabel;html=1;align=center;verticalAlign=middle;resizable=0;points=[];" vertex="1" connectable="0" parent="Fi5sc2P2ReZKkD8UqmJI-18">
          <mxGeometry x="0.5011" y="-2" relative="1" as="geometry">
            <mxPoint as="offset" />
          </mxGeometry>
        </mxCell>
        <mxCell id="Fi5sc2P2ReZKkD8UqmJI-20" value="`" style="endArrow=classic;html=1;rounded=0;" edge="1" parent="1">
          <mxGeometry width="50" height="50" relative="1" as="geometry">
            <mxPoint x="40" y="41" as="sourcePoint" />
            <mxPoint x="1060" y="40" as="targetPoint" />
          </mxGeometry>
        </mxCell>
        <mxCell id="Fi5sc2P2ReZKkD8UqmJI-21" value="Time" style="edgeLabel;html=1;align=center;verticalAlign=middle;resizable=0;points=[];" vertex="1" connectable="0" parent="Fi5sc2P2ReZKkD8UqmJI-20">
          <mxGeometry x="0.877" y="3" relative="1" as="geometry">
            <mxPoint as="offset" />
          </mxGeometry>
        </mxCell>
        <mxCell id="Fi5sc2P2ReZKkD8UqmJI-22" value="" style="endArrow=none;html=1;rounded=0;" edge="1" parent="1">
          <mxGeometry width="50" height="50" relative="1" as="geometry">
            <mxPoint x="196" y="359" as="sourcePoint" />
            <mxPoint x="1046" y="359" as="targetPoint" />
          </mxGeometry>
        </mxCell>
        <mxCell id="Fi5sc2P2ReZKkD8UqmJI-23" value="Feature1" style="edgeLabel;html=1;align=center;verticalAlign=middle;resizable=0;points=[];" vertex="1" connectable="0" parent="Fi5sc2P2ReZKkD8UqmJI-22">
          <mxGeometry x="0.6556" y="1" relative="1" as="geometry">
            <mxPoint x="83" as="offset" />
          </mxGeometry>
        </mxCell>
        <mxCell id="Fi5sc2P2ReZKkD8UqmJI-24" value="" style="endArrow=classic;html=1;rounded=0;" edge="1" parent="1">
          <mxGeometry width="50" height="50" relative="1" as="geometry">
            <mxPoint x="201" y="638.29" as="sourcePoint" />
            <mxPoint x="201" y="358.28999999999996" as="targetPoint" />
          </mxGeometry>
        </mxCell>
        <mxCell id="Fi5sc2P2ReZKkD8UqmJI-25" value="Create" style="edgeLabel;html=1;align=center;verticalAlign=middle;resizable=0;points=[];" vertex="1" connectable="0" parent="Fi5sc2P2ReZKkD8UqmJI-24">
          <mxGeometry x="-0.7429" y="1" relative="1" as="geometry">
            <mxPoint as="offset" />
          </mxGeometry>
        </mxCell>
        <mxCell id="Fi5sc2P2ReZKkD8UqmJI-26" value="" style="endArrow=classic;html=1;rounded=0;" edge="1" parent="1">
          <mxGeometry width="50" height="50" relative="1" as="geometry">
            <mxPoint x="413" y="358.28999999999996" as="sourcePoint" />
            <mxPoint x="413" y="428.28999999999996" as="targetPoint" />
          </mxGeometry>
        </mxCell>
        <mxCell id="Fi5sc2P2ReZKkD8UqmJI-27" value="Bugfix2" style="edgeLabel;html=1;align=center;verticalAlign=middle;resizable=0;points=[];" vertex="1" connectable="0" parent="Fi5sc2P2ReZKkD8UqmJI-26">
          <mxGeometry x="-0.0476" y="-1" relative="1" as="geometry">
            <mxPoint as="offset" />
          </mxGeometry>
        </mxCell>
        <mxCell id="Fi5sc2P2ReZKkD8UqmJI-28" value="" style="shape=link;html=1;rounded=0;" edge="1" parent="1">
          <mxGeometry width="100" relative="1" as="geometry">
            <mxPoint x="80" y="231" as="sourcePoint" />
            <mxPoint x="1030" y="231" as="targetPoint" />
          </mxGeometry>
        </mxCell>
        <mxCell id="Fi5sc2P2ReZKkD8UqmJI-29" value="QAEnvironment" style="edgeLabel;html=1;align=center;verticalAlign=middle;resizable=0;points=[];" vertex="1" connectable="0" parent="Fi5sc2P2ReZKkD8UqmJI-28">
          <mxGeometry x="0.9074" y="4" relative="1" as="geometry">
            <mxPoint x="1" as="offset" />
          </mxGeometry>
        </mxCell>
        <mxCell id="Fi5sc2P2ReZKkD8UqmJI-30" value="" style="endArrow=classic;html=1;rounded=0;strokeWidth=3;" edge="1" parent="1">
          <mxGeometry width="50" height="50" relative="1" as="geometry">
            <mxPoint x="287" y="428.28999999999996" as="sourcePoint" />
            <mxPoint x="287" y="239" as="targetPoint" />
          </mxGeometry>
        </mxCell>
        <mxCell id="Fi5sc2P2ReZKkD8UqmJI-31" value="" style="shape=link;html=1;rounded=0;" edge="1" parent="1">
          <mxGeometry width="100" relative="1" as="geometry">
            <mxPoint x="80" y="164" as="sourcePoint" />
            <mxPoint x="1030" y="164" as="targetPoint" />
          </mxGeometry>
        </mxCell>
        <mxCell id="Fi5sc2P2ReZKkD8UqmJI-32" value="StageEnvironment" style="edgeLabel;html=1;align=center;verticalAlign=middle;resizable=0;points=[];" vertex="1" connectable="0" parent="Fi5sc2P2ReZKkD8UqmJI-31">
          <mxGeometry x="0.9087" y="-1" relative="1" as="geometry">
            <mxPoint as="offset" />
          </mxGeometry>
        </mxCell>
        <mxCell id="Fi5sc2P2ReZKkD8UqmJI-33" value="" style="endArrow=classic;html=1;rounded=0;fillColor=#a20025;strokeColor=#6F0000;" edge="1" parent="1">
          <mxGeometry width="50" height="50" relative="1" as="geometry">
            <mxPoint x="504" y="358.28999999999996" as="sourcePoint" />
            <mxPoint x="504" y="538.29" as="targetPoint" />
          </mxGeometry>
        </mxCell>
        <mxCell id="Fi5sc2P2ReZKkD8UqmJI-34" value="Merge" style="edgeLabel;html=1;align=center;verticalAlign=middle;resizable=0;points=[];" vertex="1" connectable="0" parent="Fi5sc2P2ReZKkD8UqmJI-33">
          <mxGeometry x="0.5121" y="-1" relative="1" as="geometry">
            <mxPoint as="offset" />
          </mxGeometry>
        </mxCell>
        <mxCell id="Fi5sc2P2ReZKkD8UqmJI-35" value="" style="endArrow=classic;html=1;rounded=0;strokeWidth=3;" edge="1" parent="1">
          <mxGeometry width="50" height="50" relative="1" as="geometry">
            <mxPoint x="521" y="538.29" as="sourcePoint" />
            <mxPoint x="521" y="164" as="targetPoint" />
          </mxGeometry>
        </mxCell>
        <mxCell id="Fi5sc2P2ReZKkD8UqmJI-36" value="" style="endArrow=classic;html=1;rounded=0;fillColor=#e51400;strokeColor=#B20000;" edge="1" parent="1">
          <mxGeometry width="50" height="50" relative="1" as="geometry">
            <mxPoint x="552" y="358.28999999999996" as="sourcePoint" />
            <mxPoint x="552" y="538.29" as="targetPoint" />
          </mxGeometry>
        </mxCell>
        <mxCell id="Fi5sc2P2ReZKkD8UqmJI-37" value="Merge" style="edgeLabel;html=1;align=center;verticalAlign=middle;resizable=0;points=[];" vertex="1" connectable="0" parent="Fi5sc2P2ReZKkD8UqmJI-36">
          <mxGeometry x="0.2137" y="-1" relative="1" as="geometry">
            <mxPoint as="offset" />
          </mxGeometry>
        </mxCell>
        <mxCell id="Fi5sc2P2ReZKkD8UqmJI-38" value="" style="endArrow=classic;html=1;rounded=0;strokeWidth=3;" edge="1" parent="1">
          <mxGeometry width="50" height="50" relative="1" as="geometry">
            <mxPoint x="572" y="538.29" as="sourcePoint" />
            <mxPoint x="572" y="164" as="targetPoint" />
          </mxGeometry>
        </mxCell>
        <mxCell id="Fi5sc2P2ReZKkD8UqmJI-39" value="" style="endArrow=classic;html=1;rounded=0;strokeWidth=3;" edge="1" parent="1">
          <mxGeometry width="50" height="50" relative="1" as="geometry">
            <mxPoint x="423" y="428.28999999999996" as="sourcePoint" />
            <mxPoint x="423" y="229" as="targetPoint" />
          </mxGeometry>
        </mxCell>
        <mxCell id="Fi5sc2P2ReZKkD8UqmJI-40" value="" style="endArrow=classic;html=1;rounded=0;fillColor=#a20025;strokeColor=#6F0000;" edge="1" parent="1">
          <mxGeometry width="50" height="50" relative="1" as="geometry">
            <mxPoint x="388" y="287" as="sourcePoint" />
            <mxPoint x="388" y="427" as="targetPoint" />
          </mxGeometry>
        </mxCell>
        <mxCell id="Fi5sc2P2ReZKkD8UqmJI-41" value="Some other feature fix" style="edgeLabel;html=1;align=center;verticalAlign=middle;resizable=0;points=[];" vertex="1" connectable="0" parent="Fi5sc2P2ReZKkD8UqmJI-40">
          <mxGeometry x="-0.6429" y="1" relative="1" as="geometry">
            <mxPoint x="-1" y="27" as="offset" />
          </mxGeometry>
        </mxCell>
        <mxCell id="Fi5sc2P2ReZKkD8UqmJI-42" value="" style="shape=link;html=1;rounded=0;" edge="1" parent="1">
          <mxGeometry width="100" relative="1" as="geometry">
            <mxPoint x="80" y="104" as="sourcePoint" />
            <mxPoint x="1030" y="104" as="targetPoint" />
          </mxGeometry>
        </mxCell>
        <mxCell id="Fi5sc2P2ReZKkD8UqmJI-43" value="ProdEnvironment" style="edgeLabel;html=1;align=center;verticalAlign=middle;resizable=0;points=[];" vertex="1" connectable="0" parent="Fi5sc2P2ReZKkD8UqmJI-42">
          <mxGeometry x="0.9074" y="4" relative="1" as="geometry">
            <mxPoint x="1" as="offset" />
          </mxGeometry>
        </mxCell>
        <mxCell id="Fi5sc2P2ReZKkD8UqmJI-44" value="" style="endArrow=classic;html=1;rounded=0;strokeWidth=3;" edge="1" parent="1">
          <mxGeometry width="50" height="50" relative="1" as="geometry">
            <mxPoint x="830" y="641" as="sourcePoint" />
            <mxPoint x="832" y="101" as="targetPoint" />
          </mxGeometry>
        </mxCell>
        <mxCell id="Fi5sc2P2ReZKkD8UqmJI-45" value="" style="endArrow=classic;html=1;rounded=0;" edge="1" parent="1">
          <mxGeometry width="50" height="50" relative="1" as="geometry">
            <mxPoint x="153" y="641" as="sourcePoint" />
            <mxPoint x="153" y="544" as="targetPoint" />
          </mxGeometry>
        </mxCell>
        <mxCell id="Fi5sc2P2ReZKkD8UqmJI-46" value="Create" style="edgeLabel;html=1;align=center;verticalAlign=middle;resizable=0;points=[];" vertex="1" connectable="0" parent="Fi5sc2P2ReZKkD8UqmJI-45">
          <mxGeometry x="-0.0029" y="-4" relative="1" as="geometry">
            <mxPoint as="offset" />
          </mxGeometry>
        </mxCell>
        <mxCell id="Fi5sc2P2ReZKkD8UqmJI-47" value="" style="endArrow=classic;html=1;rounded=0;" edge="1" parent="1">
          <mxGeometry width="50" height="50" relative="1" as="geometry">
            <mxPoint x="113" y="641" as="sourcePoint" />
            <mxPoint x="113" y="434" as="targetPoint" />
          </mxGeometry>
        </mxCell>
        <mxCell id="Fi5sc2P2ReZKkD8UqmJI-48" value="Create" style="edgeLabel;html=1;align=center;verticalAlign=middle;resizable=0;points=[];" vertex="1" connectable="0" parent="Fi5sc2P2ReZKkD8UqmJI-47">
          <mxGeometry x="0.2843" y="2" relative="1" as="geometry">
            <mxPoint as="offset" />
          </mxGeometry>
        </mxCell>
        <mxCell id="Fi5sc2P2ReZKkD8UqmJI-49" value="" style="endArrow=classic;html=1;rounded=0;" edge="1" parent="1">
          <mxGeometry width="50" height="50" relative="1" as="geometry">
            <mxPoint x="868" y="491" as="sourcePoint" />
            <mxPoint x="868" y="641" as="targetPoint" />
          </mxGeometry>
        </mxCell>
        <mxCell id="Fi5sc2P2ReZKkD8UqmJI-50" value="HotFix" style="edgeLabel;html=1;align=center;verticalAlign=middle;resizable=0;points=[];" vertex="1" connectable="0" parent="Fi5sc2P2ReZKkD8UqmJI-49">
          <mxGeometry x="-0.3668" y="-1" relative="1" as="geometry">
            <mxPoint y="21" as="offset" />
          </mxGeometry>
        </mxCell>
        <mxCell id="Fi5sc2P2ReZKkD8UqmJI-51" value="" style="endArrow=classic;html=1;rounded=0;strokeWidth=3;" edge="1" parent="1">
          <mxGeometry width="50" height="50" relative="1" as="geometry">
            <mxPoint x="911" y="634" as="sourcePoint" />
            <mxPoint x="911" y="101" as="targetPoint" />
          </mxGeometry>
        </mxCell>
        <mxCell id="Fi5sc2P2ReZKkD8UqmJI-52" value="" style="endArrow=classic;html=1;rounded=0;strokeWidth=3;" edge="1" parent="1">
          <mxGeometry width="50" height="50" relative="1" as="geometry">
            <mxPoint x="882" y="534" as="sourcePoint" />
            <mxPoint x="882" y="164" as="targetPoint" />
          </mxGeometry>
        </mxCell>
        <mxCell id="Fi5sc2P2ReZKkD8UqmJI-53" value="UAT Test" style="text;html=1;align=center;verticalAlign=middle;whiteSpace=wrap;rounded=0;" vertex="1" parent="1">
          <mxGeometry x="511" y="694" width="60" height="30" as="geometry" />
        </mxCell>
        <mxCell id="Fi5sc2P2ReZKkD8UqmJI-64" value="QA test" style="text;html=1;align=center;verticalAlign=middle;resizable=0;points=[];autosize=1;strokeColor=none;fillColor=none;" vertex="1" parent="1">
          <mxGeometry x="347" y="689" width="60" height="30" as="geometry" />
        </mxCell>
        <mxCell id="Fi5sc2P2ReZKkD8UqmJI-66" value="" style="endArrow=none;html=1;rounded=0;" edge="1" parent="1">
          <mxGeometry width="50" height="50" relative="1" as="geometry">
            <mxPoint x="850" y="491" as="sourcePoint" />
            <mxPoint x="1050" y="491" as="targetPoint" />
          </mxGeometry>
        </mxCell>
        <mxCell id="Fi5sc2P2ReZKkD8UqmJI-67" value="HotFixes" style="edgeLabel;html=1;align=center;verticalAlign=middle;resizable=0;points=[];" vertex="1" connectable="0" parent="Fi5sc2P2ReZKkD8UqmJI-66">
          <mxGeometry x="0.6843" relative="1" as="geometry">
            <mxPoint as="offset" />
          </mxGeometry>
        </mxCell>
        <mxCell id="Fi5sc2P2ReZKkD8UqmJI-68" value="" style="endArrow=classic;html=1;rounded=0;" edge="1" parent="1">
          <mxGeometry width="50" height="50" relative="1" as="geometry">
            <mxPoint x="847" y="641" as="sourcePoint" />
            <mxPoint x="850" y="491" as="targetPoint" />
          </mxGeometry>
        </mxCell>
        <mxCell id="Fi5sc2P2ReZKkD8UqmJI-69" value="" style="endArrow=classic;html=1;rounded=0;" edge="1" parent="1">
          <mxGeometry width="50" height="50" relative="1" as="geometry">
            <mxPoint x="950" y="491" as="sourcePoint" />
            <mxPoint x="950" y="431" as="targetPoint" />
          </mxGeometry>
        </mxCell>
        <mxCell id="Fi5sc2P2ReZKkD8UqmJI-70" value="Merge" style="edgeLabel;html=1;align=center;verticalAlign=middle;resizable=0;points=[];" vertex="1" connectable="0" parent="Fi5sc2P2ReZKkD8UqmJI-69">
          <mxGeometry x="0.0333" y="-1" relative="1" as="geometry">
            <mxPoint as="offset" />
          </mxGeometry>
        </mxCell>
        <mxCell id="Fi5sc2P2ReZKkD8UqmJI-71" value="" style="endArrow=classic;html=1;rounded=0;" edge="1" parent="1">
          <mxGeometry width="50" height="50" relative="1" as="geometry">
            <mxPoint x="953" y="491" as="sourcePoint" />
            <mxPoint x="953" y="541" as="targetPoint" />
          </mxGeometry>
        </mxCell>
        <mxCell id="Fi5sc2P2ReZKkD8UqmJI-72" value="Merge" style="edgeLabel;html=1;align=center;verticalAlign=middle;resizable=0;points=[];" vertex="1" connectable="0" parent="Fi5sc2P2ReZKkD8UqmJI-71">
          <mxGeometry x="-0.0971" y="1" relative="1" as="geometry">
            <mxPoint as="offset" />
          </mxGeometry>
        </mxCell>
        <mxCell id="Fi5sc2P2ReZKkD8UqmJI-73" value="Development" style="text;html=1;align=center;verticalAlign=middle;resizable=0;points=[];autosize=1;strokeColor=none;fillColor=none;" vertex="1" parent="1">
          <mxGeometry x="187" y="690" width="90" height="30" as="geometry" />
        </mxCell>
      </root>
    </mxGraphModel>
  </diagram>
</mxfile>
